<mxfile host="Electron" agent="Mozilla/5.0 (Windows NT 10.0; Win64; x64) AppleWebKit/537.36 (KHTML, like Gecko) draw.io/26.0.16 Chrome/132.0.6834.196 Electron/34.2.0 Safari/537.36" version="26.0.16">
  <diagram name="페이지-1" id="jUn-iXYDyzqbW3ZydT3n">
    <mxGraphModel dx="1098" dy="1180" grid="1" gridSize="10" guides="1" tooltips="1" connect="1" arrows="1" fold="1" page="1" pageScale="1" pageWidth="1169" pageHeight="827" math="0" shadow="0">
      <root>
        <mxCell id="0" />
        <mxCell id="1" parent="0" />
        <mxCell id="eDUkALhH4fMnfee3VpbZ-59" value="Environment" style="swimlane;fillColor=#d5e8d4;strokeColor=#82b366;" parent="1" vertex="1">
          <mxGeometry x="60" y="20" width="680" height="600" as="geometry" />
        </mxCell>
        <mxCell id="eDUkALhH4fMnfee3VpbZ-60" style="edgeStyle=orthogonalEdgeStyle;html=1;exitX=0;exitY=0.5;exitDx=0;exitDy=0;entryX=0.5;entryY=0;entryDx=0;entryDy=0;rounded=0;curved=0;" parent="eDUkALhH4fMnfee3VpbZ-59" source="eDUkALhH4fMnfee3VpbZ-61" target="eDUkALhH4fMnfee3VpbZ-72" edge="1">
          <mxGeometry relative="1" as="geometry" />
        </mxCell>
        <mxCell id="eDUkALhH4fMnfee3VpbZ-61" value="Scoreboard" style="swimlane;startSize=23;fillColor=#d80073;fontColor=#ffffff;strokeColor=#A50040;" parent="eDUkALhH4fMnfee3VpbZ-59" vertex="1">
          <mxGeometry x="130" y="40" width="200" height="220" as="geometry" />
        </mxCell>
        <mxCell id="eDUkALhH4fMnfee3VpbZ-62" value="Transaction" style="swimlane;fillColor=#fff2cc;strokeColor=#d6b656;" parent="eDUkALhH4fMnfee3VpbZ-61" vertex="1">
          <mxGeometry x="10" y="30" width="180" height="180" as="geometry" />
        </mxCell>
        <mxCell id="eDUkALhH4fMnfee3VpbZ-91" value="&lt;div&gt;oper;&amp;nbsp; //operator: read/write&lt;/div&gt;&lt;div&gt;[7:0] wdata;&lt;/div&gt;&lt;div&gt;wr_en;&lt;/div&gt;&lt;div&gt;full;&lt;/div&gt;&lt;div&gt;[7:0] rdata;&lt;/div&gt;&lt;div&gt;rd_en;&lt;/div&gt;&lt;div&gt;empty;&lt;/div&gt;" style="text;html=1;align=center;verticalAlign=middle;whiteSpace=wrap;rounded=0;" parent="eDUkALhH4fMnfee3VpbZ-62" vertex="1">
          <mxGeometry x="40" y="30" width="100" height="120" as="geometry" />
        </mxCell>
        <mxCell id="eDUkALhH4fMnfee3VpbZ-63" style="edgeStyle=orthogonalEdgeStyle;html=1;exitX=0;exitY=0.5;exitDx=0;exitDy=0;entryX=0.5;entryY=1;entryDx=0;entryDy=0;rounded=0;curved=0;" parent="eDUkALhH4fMnfee3VpbZ-59" source="eDUkALhH4fMnfee3VpbZ-64" target="eDUkALhH4fMnfee3VpbZ-72" edge="1">
          <mxGeometry relative="1" as="geometry" />
        </mxCell>
        <mxCell id="eDUkALhH4fMnfee3VpbZ-64" value="Scoreboard" style="swimlane;startSize=23;fillColor=#6a00ff;fontColor=#ffffff;strokeColor=#3700CC;" parent="eDUkALhH4fMnfee3VpbZ-59" vertex="1">
          <mxGeometry x="130" y="270" width="200" height="220" as="geometry" />
        </mxCell>
        <mxCell id="eDUkALhH4fMnfee3VpbZ-65" value="Transaction" style="swimlane;fillColor=#fff2cc;strokeColor=#d6b656;" parent="eDUkALhH4fMnfee3VpbZ-64" vertex="1">
          <mxGeometry x="10" y="30" width="180" height="180" as="geometry" />
        </mxCell>
        <mxCell id="eDUkALhH4fMnfee3VpbZ-90" value="&lt;div&gt;oper;&amp;nbsp; //operator: read/write&lt;/div&gt;&lt;div&gt;[7:0] wdata;&lt;/div&gt;&lt;div&gt;wr_en;&lt;/div&gt;&lt;div&gt;full;&lt;/div&gt;&lt;div&gt;[7:0] rdata;&lt;/div&gt;&lt;div&gt;rd_en;&lt;/div&gt;&lt;div&gt;empty;&lt;/div&gt;" style="text;html=1;align=center;verticalAlign=middle;whiteSpace=wrap;rounded=0;" parent="eDUkALhH4fMnfee3VpbZ-65" vertex="1">
          <mxGeometry x="40" y="30" width="100" height="120" as="geometry" />
        </mxCell>
        <mxCell id="eDUkALhH4fMnfee3VpbZ-66" style="edgeStyle=orthogonalEdgeStyle;html=1;entryX=0.5;entryY=0;entryDx=0;entryDy=0;rounded=0;curved=0;" parent="eDUkALhH4fMnfee3VpbZ-59" source="eDUkALhH4fMnfee3VpbZ-67" target="eDUkALhH4fMnfee3VpbZ-73" edge="1">
          <mxGeometry relative="1" as="geometry" />
        </mxCell>
        <mxCell id="eDUkALhH4fMnfee3VpbZ-67" value="Generator" style="swimlane;startSize=23;fillColor=#60a917;strokeColor=#2D7600;fontColor=#ffffff;" parent="eDUkALhH4fMnfee3VpbZ-59" vertex="1">
          <mxGeometry x="350" y="40" width="200" height="220" as="geometry" />
        </mxCell>
        <mxCell id="eDUkALhH4fMnfee3VpbZ-68" value="Transaction" style="swimlane;fillColor=#fff2cc;strokeColor=#d6b656;" parent="eDUkALhH4fMnfee3VpbZ-67" vertex="1">
          <mxGeometry x="10" y="30" width="180" height="180" as="geometry" />
        </mxCell>
        <mxCell id="eDUkALhH4fMnfee3VpbZ-88" value="&lt;div&gt;oper;&amp;nbsp; //operator: read/write&lt;/div&gt;&lt;div&gt;[7:0] wdata;&lt;/div&gt;&lt;div&gt;wr_en;&lt;/div&gt;&lt;div&gt;full;&lt;/div&gt;&lt;div&gt;[7:0] rdata;&lt;/div&gt;&lt;div&gt;rd_en;&lt;/div&gt;&lt;div&gt;empty;&lt;/div&gt;" style="text;html=1;align=center;verticalAlign=middle;whiteSpace=wrap;rounded=0;" parent="eDUkALhH4fMnfee3VpbZ-68" vertex="1">
          <mxGeometry x="40" y="30" width="100" height="120" as="geometry" />
        </mxCell>
        <mxCell id="eDUkALhH4fMnfee3VpbZ-69" style="edgeStyle=orthogonalEdgeStyle;html=1;entryX=0.5;entryY=1;entryDx=0;entryDy=0;rounded=0;curved=0;" parent="eDUkALhH4fMnfee3VpbZ-59" source="eDUkALhH4fMnfee3VpbZ-70" target="eDUkALhH4fMnfee3VpbZ-73" edge="1">
          <mxGeometry relative="1" as="geometry" />
        </mxCell>
        <mxCell id="eDUkALhH4fMnfee3VpbZ-70" value="Driver" style="swimlane;startSize=23;fillColor=#1ba1e2;strokeColor=#006EAF;fontColor=#ffffff;" parent="eDUkALhH4fMnfee3VpbZ-59" vertex="1">
          <mxGeometry x="350" y="270" width="200" height="220" as="geometry" />
        </mxCell>
        <mxCell id="eDUkALhH4fMnfee3VpbZ-71" value="Transaction" style="swimlane;fillColor=#fff2cc;strokeColor=#d6b656;" parent="eDUkALhH4fMnfee3VpbZ-70" vertex="1">
          <mxGeometry x="10" y="30" width="180" height="180" as="geometry" />
        </mxCell>
        <mxCell id="eDUkALhH4fMnfee3VpbZ-89" value="&lt;div&gt;oper;&amp;nbsp; //operator: read/write&lt;/div&gt;&lt;div&gt;[7:0] wdata;&lt;/div&gt;&lt;div&gt;wr_en;&lt;/div&gt;&lt;div&gt;full;&lt;/div&gt;&lt;div&gt;[7:0] rdata;&lt;/div&gt;&lt;div&gt;rd_en;&lt;/div&gt;&lt;div&gt;empty;&lt;/div&gt;" style="text;html=1;align=center;verticalAlign=middle;whiteSpace=wrap;rounded=0;" parent="eDUkALhH4fMnfee3VpbZ-71" vertex="1">
          <mxGeometry x="40" y="30" width="100" height="120" as="geometry" />
        </mxCell>
        <mxCell id="eDUkALhH4fMnfee3VpbZ-72" value="T2S_mbox" style="whiteSpace=wrap;html=1;aspect=fixed;fillColor=#1ba1e2;fontColor=#ffffff;strokeColor=#006EAF;" parent="eDUkALhH4fMnfee3VpbZ-59" vertex="1">
          <mxGeometry x="20" y="210" width="80" height="80" as="geometry" />
        </mxCell>
        <mxCell id="eDUkALhH4fMnfee3VpbZ-73" value="&lt;span style=&quot;color: rgb(0, 0, 0);&quot;&gt;D2G_mbox&lt;/span&gt;" style="whiteSpace=wrap;html=1;aspect=fixed;fillColor=#1ba1e2;fontColor=#ffffff;strokeColor=#006EAF;" parent="eDUkALhH4fMnfee3VpbZ-59" vertex="1">
          <mxGeometry x="580" y="210" width="80" height="80" as="geometry" />
        </mxCell>
        <mxCell id="eDUkALhH4fMnfee3VpbZ-74" style="edgeStyle=none;html=1;" parent="eDUkALhH4fMnfee3VpbZ-59" edge="1">
          <mxGeometry relative="1" as="geometry">
            <mxPoint x="470" y="570" as="sourcePoint" />
            <mxPoint x="470" y="490" as="targetPoint" />
          </mxGeometry>
        </mxCell>
        <mxCell id="eDUkALhH4fMnfee3VpbZ-75" style="edgeStyle=none;html=1;" parent="eDUkALhH4fMnfee3VpbZ-59" edge="1">
          <mxGeometry relative="1" as="geometry">
            <mxPoint x="460" y="570" as="sourcePoint" />
            <mxPoint x="460" y="490" as="targetPoint" />
          </mxGeometry>
        </mxCell>
        <mxCell id="eDUkALhH4fMnfee3VpbZ-76" style="edgeStyle=none;html=1;" parent="eDUkALhH4fMnfee3VpbZ-59" edge="1">
          <mxGeometry relative="1" as="geometry">
            <mxPoint x="449.67999999999995" y="570" as="sourcePoint" />
            <mxPoint x="449.67999999999995" y="490" as="targetPoint" />
          </mxGeometry>
        </mxCell>
        <mxCell id="eDUkALhH4fMnfee3VpbZ-77" style="edgeStyle=none;html=1;" parent="eDUkALhH4fMnfee3VpbZ-59" edge="1">
          <mxGeometry relative="1" as="geometry">
            <mxPoint x="440" y="570" as="sourcePoint" />
            <mxPoint x="440" y="490" as="targetPoint" />
          </mxGeometry>
        </mxCell>
        <mxCell id="eDUkALhH4fMnfee3VpbZ-78" style="edgeStyle=none;html=1;" parent="eDUkALhH4fMnfee3VpbZ-59" edge="1">
          <mxGeometry relative="1" as="geometry">
            <mxPoint x="240" y="490" as="sourcePoint" />
            <mxPoint x="240" y="570" as="targetPoint" />
          </mxGeometry>
        </mxCell>
        <mxCell id="eDUkALhH4fMnfee3VpbZ-79" style="edgeStyle=none;html=1;" parent="eDUkALhH4fMnfee3VpbZ-59" edge="1">
          <mxGeometry relative="1" as="geometry">
            <mxPoint x="230" y="490" as="sourcePoint" />
            <mxPoint x="230" y="570" as="targetPoint" />
          </mxGeometry>
        </mxCell>
        <mxCell id="eDUkALhH4fMnfee3VpbZ-80" style="edgeStyle=none;html=1;" parent="eDUkALhH4fMnfee3VpbZ-59" edge="1">
          <mxGeometry relative="1" as="geometry">
            <mxPoint x="219.67999999999995" y="490" as="sourcePoint" />
            <mxPoint x="219.67999999999995" y="570" as="targetPoint" />
          </mxGeometry>
        </mxCell>
        <mxCell id="eDUkALhH4fMnfee3VpbZ-81" style="edgeStyle=none;html=1;" parent="eDUkALhH4fMnfee3VpbZ-59" edge="1">
          <mxGeometry relative="1" as="geometry">
            <mxPoint x="210" y="490" as="sourcePoint" />
            <mxPoint x="210" y="570" as="targetPoint" />
          </mxGeometry>
        </mxCell>
        <mxCell id="eDUkALhH4fMnfee3VpbZ-82" value="Interface" style="rounded=0;whiteSpace=wrap;html=1;fillColor=#dae8fc;strokeColor=#6c8ebf;" parent="1" vertex="1">
          <mxGeometry x="80" y="590" width="640" height="60" as="geometry" />
        </mxCell>
        <mxCell id="eDUkALhH4fMnfee3VpbZ-83" value="Dut(FIFO)" style="swimlane;fillColor=#f8cecc;strokeColor=#b85450;" parent="1" vertex="1">
          <mxGeometry x="60" y="700" width="680" height="110" as="geometry" />
        </mxCell>
        <mxCell id="eDUkALhH4fMnfee3VpbZ-84" style="edgeStyle=none;html=1;entryX=0.5;entryY=1;entryDx=0;entryDy=0;" parent="1" edge="1">
          <mxGeometry relative="1" as="geometry">
            <mxPoint x="360" y="700" as="sourcePoint" />
            <mxPoint x="360" y="650" as="targetPoint" />
          </mxGeometry>
        </mxCell>
        <mxCell id="eDUkALhH4fMnfee3VpbZ-85" style="edgeStyle=none;html=1;entryX=0.5;entryY=1;entryDx=0;entryDy=0;" parent="1" edge="1">
          <mxGeometry relative="1" as="geometry">
            <mxPoint x="320" y="700" as="sourcePoint" />
            <mxPoint x="320" y="650" as="targetPoint" />
          </mxGeometry>
        </mxCell>
        <mxCell id="eDUkALhH4fMnfee3VpbZ-86" style="edgeStyle=none;html=1;entryX=0.5;entryY=1;entryDx=0;entryDy=0;" parent="1" edge="1">
          <mxGeometry relative="1" as="geometry">
            <mxPoint x="280" y="700" as="sourcePoint" />
            <mxPoint x="280" y="650" as="targetPoint" />
          </mxGeometry>
        </mxCell>
        <mxCell id="eDUkALhH4fMnfee3VpbZ-87" style="edgeStyle=none;html=1;entryX=0.5;entryY=1;entryDx=0;entryDy=0;" parent="1" edge="1">
          <mxGeometry relative="1" as="geometry">
            <mxPoint x="240" y="700" as="sourcePoint" />
            <mxPoint x="240" y="650" as="targetPoint" />
          </mxGeometry>
        </mxCell>
        <mxCell id="eDUkALhH4fMnfee3VpbZ-92" value="[7:0] wdata, wr_en, full, [7:0]rdata, rd_en, empty;" style="text;html=1;align=center;verticalAlign=middle;whiteSpace=wrap;rounded=0;" parent="1" vertex="1">
          <mxGeometry x="220" y="630" width="360" height="20" as="geometry" />
        </mxCell>
      </root>
    </mxGraphModel>
  </diagram>
</mxfile>
